<svg width="24" height="24" viewBox="0 0 24 24" fill="none" xmlns="http://www.w3.org/2000/svg">
<path d="M12 17.5938C11.7411 17.5938 11.5312 17.8036 11.5312 18.0625C11.5312 18.0631 11.5312 18.0638 11.5312 18.0644C11.5312 18.065 11.5312 18.0656 11.5312 18.0662V18.07C11.5312 18.3289 11.7411 18.5387 12 18.5387C12.2589 18.5387 12.4688 18.3289 12.4688 18.07C12.4688 18.0693 12.4688 18.0688 12.4688 18.0681C12.4688 18.0675 12.4688 18.0669 12.4688 18.0662C12.4688 18.0656 12.4688 18.065 12.4688 18.0644C12.4688 18.0638 12.4688 18.0631 12.4688 18.0625C12.4688 17.8036 12.2589 17.5938 12 17.5938Z" fill="white"/>
<path d="M19.4062 0H4.59375C2.06072 0 0 2.06072 0 4.59375V19.4062C0 21.9393 2.06072 24 4.59375 24H12C12.2589 24 12.4688 23.7901 12.4688 23.5312V19.8984C12.4688 19.6395 12.2589 19.4297 12 19.4297C11.7411 19.4297 11.5312 19.6395 11.5312 19.8984V23.0625H4.59375C2.5777 23.0625 0.9375 21.4223 0.9375 19.4062V4.59375C0.9375 2.5777 2.5777 0.9375 4.59375 0.9375H19.4062C21.4223 0.9375 23.0625 2.5777 23.0625 4.59375V19.4062C23.0625 21.4223 21.4223 23.0625 19.4062 23.0625H16.4062V14.7891H19.1241C19.3649 14.7891 19.5664 14.6068 19.5905 14.3673L19.9276 11.0178C19.9409 10.886 19.8977 10.7547 19.8089 10.6565C19.72 10.5582 19.5937 10.5022 19.4612 10.5022H16.4062V8.74336C16.4062 8.42503 16.5076 8.30667 16.7804 8.30667H19.4401C19.699 8.30667 19.9089 8.09681 19.9089 7.83792V4.57261C19.9089 4.31372 19.699 4.10386 19.4401 4.10386H15.9472C13.968 4.10386 12.9183 4.9732 12.3863 5.70248C11.6423 6.72239 11.5312 7.92689 11.5312 8.55408V10.5232H9.23433C8.97544 10.5232 8.76558 10.733 8.76558 10.9919V14.3203C8.76558 14.5792 8.97544 14.7891 9.23433 14.7891H11.5312V16.125C11.5312 16.3839 11.7411 16.5938 12 16.5938C12.2588 16.5938 12.4687 16.3839 12.4687 16.125V14.3203C12.4687 14.0614 12.2588 13.8516 12 13.8516H9.70308V11.4606H12C12.2588 11.4606 12.4687 11.2507 12.4687 10.9919V8.55403C12.4687 7.49784 12.8077 5.04131 15.9472 5.04131H18.9714V7.36912H16.7804C16.1753 7.36912 15.4688 7.72903 15.4688 8.74331V10.9709C15.4688 11.2297 15.6786 11.4396 15.9375 11.4396H18.9429L18.7002 13.8516H15.9375C15.6786 13.8516 15.4688 14.0614 15.4688 14.3203V23.5312C15.4688 23.7901 15.6786 24 15.9375 24H19.4062C21.9393 24 24 21.9393 24 19.4062V4.59375C24 2.06072 21.9393 0 19.4062 0Z" fill="white"/>
<path d="M2.71875 4.80469C2.45986 4.80469 2.25 5.01455 2.25 5.27344V9.1875C2.25 9.44639 2.45986 9.65625 2.71875 9.65625C2.97764 9.65625 3.1875 9.44639 3.1875 9.1875V5.27344C3.1875 5.01455 2.97764 4.80469 2.71875 4.80469Z" fill="white"/>
<path d="M2.71875 10.7524C2.45986 10.7524 2.25 10.9623 2.25 11.2212V11.2267C2.25 11.4856 2.45986 11.6955 2.71875 11.6955C2.97764 11.6955 3.1875 11.4856 3.1875 11.2267V11.2212C3.1875 10.9623 2.97764 10.7524 2.71875 10.7524Z" fill="white"/>
</svg>
