<svg width="25" height="22" viewBox="0 0 25 22" fill="none" xmlns="http://www.w3.org/2000/svg">
<path d="M22.625 0.182556H2.375C1.92758 0.182966 1.49862 0.346206 1.18225 0.636452C0.86588 0.926698 0.687947 1.32024 0.6875 1.73071V11.0196H2.375V8.6974H22.6258L22.6267 20.3085H12.5V21.8567H22.625C23.0723 21.8561 23.5012 21.6928 23.8175 21.4026C24.1338 21.1124 24.3118 20.719 24.3125 20.3085V1.73071C24.3121 1.32024 24.1341 0.926698 23.8177 0.636452C23.5014 0.346206 23.0724 0.182966 22.625 0.182556ZM9.125 7.14924H2.375V1.73071H9.125V7.14924ZM10.8125 7.14924V1.73071H22.625V7.14924H10.8125Z" fill="#E76701"/>
</svg>
