<svg width="25" height="25" viewBox="0 0 25 25" fill="none" xmlns="http://www.w3.org/2000/svg">
<path d="M24.1455 5.89355H21.9629V3.64746C21.9629 3.24219 21.6357 2.91504 21.2305 2.91504H18.9844V0.732422C18.9844 0.327148 18.6572 0 18.252 0H0.854492C0.449219 0 0.12207 0.327148 0.12207 0.732422V18.374C0.12207 18.7793 0.449219 19.1064 0.854492 19.1064H3.10059V21.2891C3.10059 21.6943 3.42773 22.0215 3.83301 22.0215H6.01562V24.2676C6.01562 24.6729 6.34277 25 6.74805 25H24.1455C24.5508 25 24.8779 24.6729 24.8779 24.2676V6.62598C24.8779 6.2207 24.5508 5.89355 24.1455 5.89355ZM1.58691 17.6416V1.46484H17.5195V3.64746V17.6416H1.58691ZM4.56543 20.5566V19.1064H18.252C18.6572 19.1064 18.9844 18.7793 18.9844 18.374V4.37988H20.498V20.5566H4.56543ZM23.4131 23.5352H7.48047V22.0215H21.2305C21.6357 22.0215 21.9629 21.6943 21.9629 21.2891V7.3584H23.4131V23.5352Z" fill="#F97805"/>
<path d="M9.55566 4.18947C7.6123 4.18947 6.03516 5.76662 6.03516 7.70998C6.03516 9.65333 7.6123 11.2305 9.55566 11.2305C11.499 11.2305 13.0762 9.65333 13.0762 7.70998C13.0762 5.76662 11.499 4.18947 9.55566 4.18947ZM9.55566 9.76564C8.42285 9.76564 7.5 8.84279 7.5 7.70998C7.5 6.57716 8.41796 5.65431 9.55566 5.65431C10.6885 5.65431 11.6113 6.57716 11.6113 7.70998C11.6113 8.84279 10.6885 9.76564 9.55566 9.76564Z" fill="#F97805"/>
<path d="M14.2627 12.9443H4.84375C4.43848 12.9443 4.11133 13.2715 4.11133 13.6768C4.11133 14.082 4.43848 14.4092 4.84375 14.4092H14.2627C14.668 14.4092 14.9951 14.082 14.9951 13.6768C14.9951 13.2715 14.668 12.9443 14.2627 12.9443Z" fill="#F97805"/>
</svg>
