<svg width="19" height="18" viewBox="0 0 19 18" fill="none" xmlns="http://www.w3.org/2000/svg">
<path opacity="0.14" d="M8.00001 15.2289C9.77499 15.2285 11.4988 14.6687 12.897 13.6385L17.293 17.7803L18.707 16.4481L14.311 12.3062C15.405 10.9887 15.9996 9.36413 16 7.69133C16 3.53531 12.411 0.153778 8.00001 0.153778C3.58901 0.153778 0 3.53531 0 7.69133C0 11.8473 3.58901 15.2289 8.00001 15.2289ZM8.00001 2.03817C11.309 2.03817 14 4.57361 14 7.69133C14 10.809 11.309 13.3445 8.00001 13.3445C4.69101 13.3445 2 10.809 2 7.69133C2 4.57361 4.69101 2.03817 8.00001 2.03817Z" fill="black"/>
</svg>
