<svg width="101" height="33" viewBox="0 0 101 33" fill="none" xmlns="http://www.w3.org/2000/svg">
<path d="M7.41699 30.5293C12.0312 30.5635 16.2183 27.3335 16.1499 22.8047C16.1499 18.7886 13.313 16.6694 10.5786 14.6187C8.10059 12.8242 5.79346 11.0127 5.79346 8.09033C5.79346 5.59521 8.93799 4.17676 10.4932 4.17676C12.3389 4.17676 13.5352 5.2876 14.082 7.50928C14.1675 7.78271 14.3213 7.98779 14.5605 8.1416C14.7314 8.22705 14.9194 8.27832 15.1074 8.27832C15.5005 8.27832 15.8081 8.12451 16.0303 7.7998C16.1328 7.646 16.1841 7.4751 16.1841 7.28711C16.1841 7.20166 16.167 7.11621 16.1499 7.03076C15.3296 3.74951 12.9199 1.28857 9.2627 1.28857C5.0415 1.25439 0.769043 4.21094 0.854492 8.56885C0.854492 13.2686 3.89648 15.4561 6.71631 17.4043C7.92969 18.1904 8.97217 19.0449 9.84375 19.9507C10.7153 20.8564 11.1768 21.9844 11.228 23.3516C11.2109 24.001 10.8862 24.6504 10.271 25.2827C9.65576 25.915 8.90381 26.4619 8.03223 26.8892C7.16064 27.3164 6.35742 27.5386 5.62256 27.5386C4.58008 27.5386 3.81104 26.8721 3.81104 25.3853C3.81104 24.7188 4.01611 24.0864 4.42627 23.4541C4.61426 23.1636 4.69971 22.9072 4.69971 22.6509C4.69971 21.9844 4.35791 21.6597 3.67432 21.6597C3.28125 21.6597 2.88818 21.9502 2.46094 22.5312C1.82861 23.5054 1.521 24.4795 1.521 25.4707C1.521 28.2563 3.75977 30.5293 7.41699 30.5293ZM25.8569 32.9561C26.4893 32.9561 26.814 32.6484 26.814 32.0503C26.814 31.7256 26.626 31.4692 26.25 31.2812C25.3784 30.854 24.6606 29.3501 24.0796 26.8037C23.4985 24.2402 23.208 21.3521 23.1909 18.1392C23.1909 16.6694 23.1909 15.5928 23.208 14.8921L25.7715 14.9263C26.1987 14.9263 26.4893 14.8066 26.6431 14.5503C26.7627 14.3965 26.814 14.2256 26.814 14.0547C26.814 13.5249 26.4551 13.2173 25.7202 13.166C24.6948 13.0806 23.8745 13.0464 23.2593 13.0464C23.3447 10.9785 23.5327 9.11572 23.8062 7.44092C23.8574 7.18457 23.8745 6.9624 23.8745 6.74023C23.8745 5.85156 23.5498 4.9458 22.7124 4.4502C22.3022 4.19385 21.875 4.07422 21.4136 4.07422C20.9521 4.07422 20.542 4.21094 20.1831 4.50146C19.4312 5.06543 18.9526 7.9707 18.7305 13.2002C18.0298 13.2856 17.3633 13.3882 16.7139 13.542C16.4575 13.5933 16.2695 13.73 16.1328 13.9521C16.0474 14.0889 16.0132 14.2256 16.0132 14.3794C16.0132 14.9775 16.2695 15.2852 16.7993 15.2852H17.124C17.6196 15.1997 18.1494 15.1313 18.6963 15.063C18.6963 21.4033 19.2773 25.8809 20.4395 28.4956C21.106 29.9995 21.9775 31.1445 23.02 31.9136C23.96 32.6143 24.8999 32.9561 25.8569 32.9561ZM31.9751 28.4956C32.5391 28.4956 33.0005 28.3418 33.3423 28.0342C33.5815 27.812 33.7012 27.5557 33.7012 27.248C33.7012 27.0942 33.6841 26.9404 33.6328 26.7866C32.8979 24.582 32.5049 22.2236 32.4536 19.7114L32.4365 17.9683C32.4365 16.4473 32.522 14.5503 32.6758 12.3115C32.7441 10.8076 31.5479 9.90186 30.2661 9.91895C29.2578 9.91895 28.3691 10.4316 28.2837 11.3374C28.0957 13.3198 27.9932 15.3706 27.9932 17.4897C27.9932 21.0615 28.4033 23.9668 29.2407 26.2397C29.8047 27.8291 30.9668 28.4956 31.9751 28.4956ZM30.9668 8.15869C31.5308 8.15869 32.0264 7.88525 32.4194 7.35547C32.8296 6.82568 33.0347 6.17627 33.0347 5.40723C33.0347 4.63818 32.8296 3.98877 32.4194 3.45898C32.0264 2.91211 31.5308 2.63867 30.9668 2.63867C30.4028 2.63867 29.9072 2.91211 29.4971 3.45898C29.104 3.98877 28.8989 4.63818 28.8989 5.40723C28.8989 6.17627 29.104 6.82568 29.4971 7.35547C29.9072 7.88525 30.4028 8.15869 30.9668 8.15869ZM42.2803 28.752C44.5532 28.752 46.228 27.7437 47.2705 25.71C47.9883 24.3257 48.3472 22.6851 48.3472 20.7881C48.3472 20.4121 48.3301 20.0361 48.2959 19.6602C48.2275 19.062 47.7832 18.7202 47.2363 18.7202C46.9458 18.7202 46.7065 18.8398 46.5015 19.0791C46.3477 19.2671 46.2793 19.4722 46.2793 19.7285L46.2964 20.8223C46.2964 22.668 45.8008 24.4624 44.7754 25.5391C44.2798 26.0688 43.7671 26.3423 43.2544 26.3423C41.5625 26.3423 40.127 24.394 40.127 19.1816C40.127 16.6011 40.5371 14.4819 41.3745 12.8413C42.1777 11.252 42.981 10.4487 43.8013 10.4487C44.0576 10.4487 44.314 10.5513 44.5532 10.7393C45.0317 11.1323 45.271 11.9185 45.271 13.0977V13.6958C45.271 14.2256 45.6812 14.7041 46.2793 14.7041C46.8091 14.7041 47.2705 14.311 47.2876 13.7471L47.3047 13.2173C47.3047 11.7646 46.9629 10.4658 46.2964 9.30371C45.4248 7.78271 44.1943 7.01367 42.605 7.01367C41.5283 7.01367 40.6055 7.25293 39.8193 7.73145C38.3496 8.63721 37.2559 10.1582 36.5552 12.2773C35.957 14.0547 35.6665 15.8833 35.6665 17.7632C35.6665 21.1641 36.3672 23.9326 37.7515 26.0859C38.8794 27.8633 40.3833 28.752 42.2803 28.752ZM63.1812 32.8193C63.3691 32.8193 63.5571 32.751 63.7622 32.6313C64.0698 32.4604 64.2236 32.187 64.2236 31.7939C64.2236 31.4351 63.9844 30.9565 63.4204 30.8027C60.4297 30.1021 60.7031 24.0522 56.1572 19.6431C60.6689 16.96 62.9248 13.9521 62.9248 10.6025C62.9248 9.30371 62.7197 8.51758 62.3096 8.24414C62.1216 8.12451 61.9336 8.05615 61.7114 8.05615C61.3354 8.05615 61.0449 8.20996 60.8228 8.50049C60.7031 8.67139 60.6519 8.84229 60.6519 9.03027L60.6689 9.16699C60.7202 9.56006 60.7373 9.91895 60.7373 10.2437C60.7373 11.5254 60.2588 12.8413 59.2847 14.2256C58.3105 15.5928 56.9604 16.8062 55.2173 17.8486C55.2173 12.9097 54.9268 8.05615 54.3286 3.271C54.1919 2.22852 53.8843 1.45947 53.4058 0.998047C52.9443 0.536621 52.4316 0.297363 51.9019 0.297363C51.3379 0.297363 50.8594 0.468262 50.4492 0.827148C50.0903 1.15186 49.9194 1.54492 49.9194 2.04053V2.17725C50.4834 6.97949 50.7739 12.021 50.7739 17.2676C50.7739 20.6343 50.6714 23.9668 50.4663 27.248L50.4321 27.6069C50.3638 29.3501 51.543 30.3071 52.7905 30.2729C53.252 30.2729 53.6621 30.1362 54.0552 29.8799C54.7559 29.4185 55.1318 28.2222 55.2173 26.2739C55.2344 25.8467 55.2515 25.4023 55.2515 24.958C55.2515 24.0864 55.2002 23.1636 55.2002 22.1895C56.311 23.4028 56.9946 25.0093 57.6099 26.667C58.6353 29.3501 59.729 31.999 62.8906 32.7852C62.9932 32.8022 63.0957 32.8193 63.1812 32.8193ZM68.9404 18.8057C69.0088 16.6182 69.4189 14.8066 70.1709 13.354C70.9912 11.7646 71.8115 10.9614 72.6318 10.9614C73.2471 10.9614 73.5547 11.4741 73.5547 12.4995C73.5547 13.5762 73.1104 14.8066 72.2217 16.208C71.4868 17.353 70.3931 18.2075 68.9404 18.8057ZM70.8032 28.9058C72.5977 28.9058 73.9478 28.1025 74.8877 26.4961C75.6055 25.2485 75.9644 23.8301 75.9644 22.2236L75.9473 21.6426C75.9302 21.0444 75.4688 20.6685 74.939 20.6685C74.3237 20.6685 73.9136 21.1812 73.9136 21.7451V22.104C73.9136 23.3516 73.6914 24.377 73.23 25.2144C72.7856 26.0347 72.29 26.4448 71.7261 26.4448C70.8203 26.4448 70.1367 25.7954 69.6582 24.4795C69.2993 23.5054 69.0601 22.3433 68.9746 20.959C73.4009 19.1304 75.6055 16.2935 75.6055 12.4824C75.6055 10.8589 75.2124 9.62842 74.4092 8.79102C73.606 7.95361 72.6147 7.52637 71.4355 7.52637C70.3589 7.52637 69.436 7.76562 68.6499 8.24414C67.1802 9.1499 66.0864 10.6709 65.3857 12.79C64.7876 14.5674 64.4971 16.396 64.4971 18.2759C64.4971 21.7793 65.0781 24.4282 66.2231 26.2227C67.3682 28.0171 68.9062 28.9058 70.8032 28.9058ZM81.416 28.564C82.6636 28.5469 83.3301 27.9829 83.3813 26.8379C83.5522 23.249 83.8086 20.6172 84.1333 18.9253C85.3467 12.6875 86.4575 9.56006 87.5 9.56006C87.9272 9.56006 88.269 9.6626 88.5938 9.6626C89.2261 9.6626 89.7046 9.16699 89.7046 8.56885C89.7046 8.09033 89.4824 7.76562 89.021 7.57764C88.6621 7.42383 88.2861 7.35547 87.8931 7.35547C87.5513 7.35547 87.1924 7.40674 86.8335 7.50928C85.2612 7.93652 83.9282 10.4316 82.8516 14.9604C82.7661 13.3711 82.6294 12.1235 82.4414 11.2178C81.98 9.04736 80.8691 8.19287 79.7925 8.19287C79.2114 8.19287 78.75 8.39795 78.3911 8.80811C78.1348 9.09863 78.0151 9.45752 78.0151 9.88477C78.0151 10.0557 78.0322 10.2266 78.0664 10.4146C78.3911 11.9185 78.6475 13.5078 78.8013 15.1655C78.9722 16.8232 79.0576 20.1729 79.0576 25.2144C79.0576 26.3936 79.2969 27.248 79.7754 27.7778C80.271 28.3076 80.8179 28.564 81.416 28.564ZM93.96 29.9312C96.9678 29.9653 100.249 27.5044 100.181 23.9326C100.215 20.3438 98.0786 18.686 96.2329 17.1821C94.5923 15.9175 93.1226 14.6699 93.1226 12.4653C93.0542 10.5171 95.0024 9.4917 95.9766 9.4917C97.1899 9.4917 97.9761 10.3462 98.3521 12.0723C98.4375 12.4653 98.6938 12.6704 99.104 12.6704C99.5654 12.6704 100.044 12.3457 100.044 11.8672V11.6963C99.873 10.3462 99.3091 9.25244 98.3691 8.44922C97.4292 7.646 96.3696 7.23584 95.1733 7.23584C92.439 7.21875 89.1064 9.64551 89.1748 13.0293C89.1406 16.7036 91.123 18.3613 92.8491 19.9165C93.6182 20.5488 94.2676 21.2153 94.8145 21.9331C95.3784 22.6338 95.6519 23.5225 95.6519 24.582C95.6519 25.3511 95.3613 26.0518 94.7632 26.6841C94.1821 27.3164 93.5327 27.624 92.7979 27.624C92.1143 27.624 91.6016 27.1113 91.6016 25.9492C91.6016 25.4365 91.7383 24.9409 91.9946 24.4624C92.0972 24.2744 92.1484 24.0864 92.1484 23.9326C92.1484 23.6079 91.9263 23.0439 91.2598 23.0439C90.9351 23.0439 90.6274 23.2832 90.3711 23.7446C89.9438 24.4795 89.7217 25.2485 89.7217 26.0176C89.7217 27.1113 90.1318 28.0342 90.9521 28.7861C91.7725 29.5552 92.7808 29.9312 93.96 29.9312Z" fill="white"/>
</svg>
