<svg width="25" height="25" viewBox="0 0 25 25" fill="none" xmlns="http://www.w3.org/2000/svg">
<path d="M22.0703 0.976562H2.92969C1.31416 0.976562 0 2.29073 0 3.90625V21.0938C0 22.7093 1.31416 24.0234 2.92969 24.0234H22.0703C23.6858 24.0234 25 22.7093 25 21.0938V3.90625C25 2.29073 23.6858 0.976562 22.0703 0.976562ZM2.92969 2.92969H22.0703C22.6088 2.92969 23.0469 3.36781 23.0469 3.90625V6.83594H1.95312V3.90625C1.95312 3.36781 2.39124 2.92969 2.92969 2.92969ZM22.0703 22.0703H2.92969C2.39124 22.0703 1.95312 21.6322 1.95312 21.0938V8.78906H23.0469V21.0938C23.0469 21.6322 22.6088 22.0703 22.0703 22.0703ZM3.41797 4.88281C3.41797 4.34341 3.85513 3.90625 4.39453 3.90625C4.93393 3.90625 5.37109 4.34341 5.37109 4.88281C5.37109 5.42221 4.93393 5.85938 4.39453 5.85938C3.85513 5.85938 3.41797 5.42221 3.41797 4.88281ZM6.83594 4.88281C6.83594 4.34341 7.2731 3.90625 7.8125 3.90625C8.3519 3.90625 8.78906 4.34341 8.78906 4.88281C8.78906 5.42221 8.3519 5.85938 7.8125 5.85938C7.2731 5.85938 6.83594 5.42221 6.83594 4.88281ZM16.9258 10.0517L20.3508 13.4766L16.9258 16.9014L15.5449 15.5205L16.6121 14.4531H11.4746V12.5H16.6121L15.5449 11.4326L16.9258 10.0517ZM8.38795 16.4062H13.4277V18.3594H8.38795L9.45511 19.4267L8.07419 20.8076L4.64916 17.3828L8.07419 13.958L9.45511 15.3389L8.38795 16.4062Z" fill="#F97805"/>
</svg>
