<svg width="26" height="26" viewBox="0 0 26 26" fill="none" xmlns="http://www.w3.org/2000/svg">
<path d="M5.41667 5.41667H11.9167C12.5125 5.41667 13 4.92917 13 4.33333C13 3.7375 12.5125 3.25 11.9167 3.25H5.41667C4.225 3.25 3.25 4.225 3.25 5.41667V20.5833C3.25 21.775 4.225 22.75 5.41667 22.75H11.9167C12.5125 22.75 13 22.2625 13 21.6667C13 21.0708 12.5125 20.5833 11.9167 20.5833H5.41667V5.41667Z" fill="#E76701"/>
<path d="M22.3708 12.6209L19.3483 9.59838C19.273 9.52097 19.1763 9.46781 19.0705 9.4457C18.9648 9.42359 18.8549 9.43352 18.7548 9.47424C18.6548 9.51496 18.5691 9.58461 18.5089 9.67427C18.4487 9.76393 18.4165 9.86952 18.4167 9.97754V11.9167H10.8333C10.2375 11.9167 9.75 12.4042 9.75 13C9.75 13.5959 10.2375 14.0834 10.8333 14.0834H18.4167V16.0225C18.4167 16.51 19.0017 16.7484 19.3375 16.4017L22.36 13.3792C22.5767 13.1734 22.5767 12.8267 22.3708 12.6209Z" fill="#E76701"/>
</svg>
