<svg width="24" height="24" viewBox="0 0 24 24" fill="none" xmlns="http://www.w3.org/2000/svg">
<g clip-path="url(#clip0_179_234)">
<path d="M23.962 12.1853C24.0393 11.9983 23.9963 11.7832 23.853 11.6403L14.853 2.6403C14.6544 2.44844 14.3378 2.45397 14.146 2.65258C13.9589 2.84636 13.9589 3.15353 14.146 3.34727L22.293 11.4943H0.500016C0.223875 11.4943 0 11.7182 0 11.9943C0 12.2705 0.223875 12.4944 0.500016 12.4944H22.293L14.147 20.6403C13.9484 20.8322 13.9429 21.1487 14.1347 21.3474C14.3266 21.546 14.6431 21.5515 14.8417 21.3596C14.8459 21.3556 14.85 21.3515 14.854 21.3474L23.854 12.3474C23.9002 12.3009 23.937 12.2459 23.962 12.1853Z" fill="white"/>
<path d="M14.4999 21.4943C14.2238 21.4949 13.9995 21.2714 13.999 20.9952C13.9988 20.8621 14.0517 20.7344 14.1459 20.6403L22.793 11.9944L14.1459 3.34837C13.9541 3.14976 13.9596 2.83321 14.1582 2.64135C14.352 2.45423 14.6592 2.45423 14.8529 2.64135L23.8529 11.6414C24.0481 11.8366 24.0481 12.1531 23.8529 12.3484L14.8529 21.3484C14.7592 21.4418 14.6323 21.4943 14.4999 21.4943Z" fill="white"/>
<path d="M23.5 12.4943H0.500016C0.223875 12.4943 0 12.2705 0 11.9944C0 11.7182 0.223875 11.4944 0.500016 11.4944H23.5C23.7762 11.4944 24 11.7182 24 11.9944C24 12.2705 23.7761 12.4943 23.5 12.4943Z" fill="white"/>
</g>
<defs>
<clipPath id="clip0_179_234">
<rect width="24" height="24" fill="white"/>
</clipPath>
</defs>
</svg>
