<svg width="28" height="28" viewBox="0 0 28 28" fill="none" xmlns="http://www.w3.org/2000/svg">
<path d="M19.8334 24.5V22.1667C19.8334 20.929 19.3417 19.742 18.4666 18.8668C17.5914 17.9917 16.4044 17.5 15.1667 17.5H5.83341C4.59574 17.5 3.40875 17.9917 2.53358 18.8668C1.65841 19.742 1.16675 20.929 1.16675 22.1667V24.5" stroke="#E76701" stroke-width="2" stroke-linecap="round" stroke-linejoin="round"/>
<path d="M10.5002 12.8333C13.0775 12.8333 15.1668 10.744 15.1668 8.16667C15.1668 5.58934 13.0775 3.5 10.5002 3.5C7.92283 3.5 5.8335 5.58934 5.8335 8.16667C5.8335 10.744 7.92283 12.8333 10.5002 12.8333Z" stroke="#E76701" stroke-width="2" stroke-linecap="round" stroke-linejoin="round"/>
<path d="M26.8335 24.5V22.1667C26.8327 21.1327 26.4886 20.1283 25.8551 19.3111C25.2216 18.4939 24.3346 17.9102 23.3335 17.6517" stroke="#E76701" stroke-width="2" stroke-linecap="round" stroke-linejoin="round"/>
<path d="M18.6667 3.65168C19.6706 3.9087 20.5603 4.4925 21.1957 5.31104C21.831 6.12959 22.1759 7.13631 22.1759 8.17251C22.1759 9.20871 21.831 10.2154 21.1957 11.034C20.5603 11.8525 19.6706 12.4363 18.6667 12.6933" stroke="#E76701" stroke-width="2" stroke-linecap="round" stroke-linejoin="round"/>
</svg>
